<?xml version="1.0" encoding="UTF-8"?>
<svg version="1.1" xmlns="http://www.w3.org/2000/svg" width="391" height="387">
<path d="M0 0 C129.03 0 258.06 0 391 0 C391 127.71 391 255.42 391 387 C261.97 387 132.94 387 0 387 C0 259.29 0 131.58 0 0 Z " fill="#FEFEFE" transform="translate(0,0)"/>
<path d="M0 0 C19.47 0 38.94 0 59 0 C57.61561742 6.22972162 56.30867427 11.13806235 53.6875 16.75 C53.0550241 18.14871644 52.42484075 19.54847164 51.796875 20.94921875 C51.33571289 21.97668213 51.33571289 21.97668213 50.86523438 23.02490234 C49.17521431 26.88276417 47.71549926 30.82714712 46.2265625 34.765625 C42.77983805 43.85443979 39.07705565 52.83494007 35.31713867 61.79760742 C31.5728823 70.72344267 27.96193816 79.65078398 24.62890625 88.73828125 C22.1482815 95.35274191 19.34379565 101.84002564 16.6081543 108.35180664 C14.03161596 114.49398098 11.55089046 120.64966054 9.203125 126.8828125 C7.72177328 130.72086015 6.14342253 134.5146321 4.5625 138.3125 C1.17362685 146.46981191 -1.93447181 154.716969 -5 163 C-7.46427223 169.64446407 -10.02660105 176.15591626 -13.0625 182.5625 C-15.4389271 187.60101169 -17.32830445 192.62469847 -18.9453125 197.953125 C-20.05946614 201.17179106 -21.40226364 204.20845408 -22.8046875 207.30957031 C-25.01505503 212.28470312 -27.07518131 217.32383867 -29.15405273 222.35498047 C-29.9307228 224.23360717 -30.71036142 226.11098229 -31.49023438 227.98828125 C-34.39961789 235.00974006 -37.20871065 242.06243335 -39.91674805 249.1640625 C-41.45891936 253.20144405 -43.06550634 257.21077133 -44.68066406 261.21948242 C-46.01913853 264.54483464 -47.34443657 267.87426931 -48.64453125 271.21484375 C-48.91338135 271.90078613 -49.18223145 272.58672852 -49.45922852 273.29345703 C-49.97557767 274.61182922 -50.48796754 275.93176087 -50.99584961 277.25341797 C-52.07669034 280.000104 -52.8880478 281.8880478 -55 284 C-58.69189017 275.71186616 -62.29037892 267.42580791 -65.4921875 258.93359375 C-67.56765378 253.46879304 -69.76256524 248.05075534 -71.9375 242.625 C-72.38013184 241.5201123 -72.82276367 240.41522461 -73.27880859 239.27685547 C-75.04826858 234.8620758 -76.81958112 230.44804555 -78.59375 226.03515625 C-80.95478313 220.15316384 -83.29084442 214.26284657 -85.59765625 208.359375 C-86.56486773 205.88532382 -87.53222212 203.41132958 -88.5 200.9375 C-88.74204163 200.31865936 -88.98408325 199.69981873 -89.23345947 199.06222534 C-92.24898043 191.36009381 -95.35165303 183.72388649 -98.671875 176.1484375 C-100.52646153 171.75197648 -102.17104985 167.28536488 -103.82592773 162.81079102 C-106.31967047 156.08622862 -109.08236818 149.49044583 -111.89892578 142.89501953 C-115.78307965 133.78941717 -119.57408301 124.68200148 -122.97875977 115.38500977 C-124.57235879 111.05492757 -126.32848101 106.85285839 -128.3359375 102.69921875 C-129 101 -129 101 -129 98 C-172.23 98 -215.46 98 -260 98 C-258.52317869 94.30794674 -257.55361128 92.10917531 -255.3125 89.06640625 C-254.78398437 88.34259766 -254.25546875 87.61878906 -253.7109375 86.87304688 C-252.86402344 85.72932617 -252.86402344 85.72932617 -252 84.5625 C-250.81216922 82.93904405 -249.62467224 81.31534382 -248.4375 79.69140625 C-247.85097656 78.89234863 -247.26445312 78.09329102 -246.66015625 77.27001953 C-244.83862872 74.77934851 -243.03664866 72.27610759 -241.25584126 69.75618172 C-240.08027082 68.11225157 -238.87147053 66.49222722 -237.66044617 64.87423706 C-235.70519718 62.16621052 -234.18423336 59.44017327 -232.720047 56.44070435 C-229.44162912 50.25153669 -225.97166363 44.35490628 -219.05550766 41.99550629 C-210.84076195 40.55154452 -202.52845983 40.87160422 -194.2291677 41.17490911 C-190.59299395 41.28843194 -186.95647414 41.29808084 -183.31880188 41.31936646 C-176.44956916 41.37503562 -169.58557201 41.52231695 -162.71863252 41.70365727 C-154.89334758 41.90576089 -147.06779494 42.00403809 -139.24054468 42.0941751 C-123.1573112 42.28168351 -107.07932625 42.59769235 -91 43 C-89.88445967 45.69752444 -88.77004161 48.39550359 -87.65625 51.09375 C-87.34333008 51.85010742 -87.03041016 52.60646484 -86.70800781 53.38574219 C-84.91335379 57.73613387 -83.16913268 62.09942409 -81.5 66.5 C-79.60954547 71.4771639 -77.60788587 76.39781537 -75.5625 81.3125 C-73.23183643 86.92274917 -70.99418282 92.55641628 -68.875 98.25 C-68.62814453 98.91217529 -68.38128906 99.57435059 -68.12695312 100.2565918 C-66.99529457 103.30037608 -65.87345564 106.34729839 -64.76171875 109.3984375 C-61.72175398 117.5776261 -58.02109493 125.27069072 -54 133 C-53.55269531 131.83984375 -53.10539063 130.6796875 -52.64453125 129.484375 C-52.03393506 127.9062187 -51.42325331 126.3280955 -50.8125 124.75 C-50.52052734 123.99203125 -50.22855469 123.2340625 -49.92773438 122.453125 C-47.79816678 116.95746669 -45.55575374 111.5155728 -43.27856445 106.07958984 C-41.19228106 101.0545032 -39.19422594 95.99475366 -37.1875 90.9375 C-34.12228839 83.23492355 -31.00163094 75.56324488 -27.75 67.9375 C-25.05474197 61.60901014 -22.53092953 55.24203031 -20.15185547 48.78833008 C-17.57495711 41.80181789 -14.78865047 34.90409476 -12 28 C-11.31188423 26.27107829 -10.62431124 24.54194035 -9.9375 22.8125 C-8.45682253 19.11697582 -6.95490239 15.430604 -5.4375 11.75 C-4.84775391 10.31914063 -4.84775391 10.31914063 -4.24609375 8.859375 C-2.93780329 5.85727902 -1.46452751 2.92905502 0 0 Z " fill="#010101" transform="translate(284,48)"/>
<path d="M0 0 C0 0.99 0 1.98 0 3 C0.66 3.33 1.32 3.66 2 4 C0.68 4 -0.64 4 -2 4 C-1.67 4.99 -1.34 5.98 -1 7 C36.95 7.33 74.9 7.66 114 8 C114 8.33 114 8.66 114 9 C70.77 9 27.54 9 -17 9 C-16.67 8.34 -16.34 7.68 -16 7 C-13.69 7.33 -11.38 7.66 -9 8 C-8.67 7.01 -8.34 6.02 -8 5 C-7.34 5 -6.68 5 -6 5 C-5.67 4.01 -5.34 3.02 -5 2 C-2 0 -2 0 0 0 Z " fill="#101010" transform="translate(41,137)"/>
<path d="M0 0 C0.66 0 1.32 0 2 0 C2 0.66 2 1.32 2 2 C2.99 2.33 3.98 2.66 5 3 C4.01 3.33 3.02 3.66 2 4 C1.6278958 5.32303717 1.29369827 6.65737935 1 8 C0.01 8.495 0.01 8.495 -1 9 C-1.66 8.67 -2.32 8.34 -3 8 C-3.185625 8.86625 -3.37125 9.7325 -3.5625 10.625 C-5.42296614 14.99305093 -8.16775847 17.29149846 -12 20 C-12.33 20 -12.66 20 -13 20 C-13 20.66 -13 21.32 -13 22 C-13.99 22 -14.98 22 -16 22 C-16 22.99 -16 23.98 -16 25 C-16.99 25 -17.98 25 -19 25 C-19 25.99 -19 26.98 -19 28 C-20.32 27.34 -21.64 26.68 -23 26 C-22.52794881 21.75153925 -20.11122478 19.73180712 -17 17 C-16.34 17 -15.68 17 -15 17 C-14.67 16.01 -14.34 15.02 -14 14 C-13.34 14 -12.68 14 -12 14 C-11.67 13.01 -11.34 12.02 -11 11 C-10.34 11 -9.68 11 -9 11 C-8.731875 10.360625 -8.46375 9.72125 -8.1875 9.0625 C-7 7 -7 7 -4 6 C-4 5.34 -4 4.68 -4 4 C-3.34 4 -2.68 4 -2 4 C-2 3.34 -2 2.68 -2 2 C-1.34 2 -0.68 2 0 2 C0 1.34 0 0.68 0 0 Z " fill="#111111" transform="translate(142,104)"/>
<path d="M0 0 C0.66 0 1.32 0 2 0 C2 0.66 2 1.32 2 2 C2.99 2.33 3.98 2.66 5 3 C4.01 3.33 3.02 3.66 2 4 C1.6278958 5.32303717 1.29369827 6.65737935 1 8 C0.01 8.495 0.01 8.495 -1 9 C-1 8.34 -1 7.68 -1 7 C-1.66 7 -2.32 7 -3 7 C-3.226875 8.051875 -3.45375 9.10375 -3.6875 10.1875 C-4.83325854 14.17734002 -6.66165893 16.45650204 -10 19 C-12.125 18.875 -12.125 18.875 -14 18 C-14.99 17.67 -15.98 17.34 -17 17 C-16.505 15.515 -16.505 15.515 -16 14 C-15.443125 13.731875 -14.88625 13.46375 -14.3125 13.1875 C-11.39261087 11.68809747 -9.57816833 9.63646208 -7.3671875 7.2421875 C-6 6 -6 6 -4 6 C-4 5.34 -4 4.68 -4 4 C-3.34 4 -2.68 4 -2 4 C-2 3.34 -2 2.68 -2 2 C-1.34 2 -0.68 2 0 2 C0 1.34 0 0.68 0 0 Z " fill="#121212" transform="translate(264,124)"/>
<path d="M0 0 C0.12375 0.639375 0.2475 1.27875 0.375 1.9375 C0.58125 2.618125 0.7875 3.29875 1 4 C1.66 4.33 2.32 4.66 3 5 C2.34 5 1.68 5 1 5 C0.87625 5.639375 0.7525 6.27875 0.625 6.9375 C0.315625 7.9584375 0.315625 7.9584375 0 9 C-0.99 9.495 -0.99 9.495 -2 10 C-2 9.34 -2 8.68 -2 8 C-2.66 8 -3.32 8 -4 8 C-4.226875 9.051875 -4.45375 10.10375 -4.6875 11.1875 C-5.83325854 15.17734002 -7.66165893 17.45650204 -11 20 C-13.3125 19.8125 -13.3125 19.8125 -15 19 C-15 17.68 -15 16.36 -15 15 C-14.34 15 -13.68 15 -13 15 C-12.7525 14.4225 -12.505 13.845 -12.25 13.25 C-10.81700012 10.67060021 -9.21575324 8.93878408 -7 7 C-6.34 7 -5.68 7 -5 7 C-5 6.34 -5 5.68 -5 5 C-4.34 5 -3.68 5 -3 5 C-3 4.34 -3 3.68 -3 3 C-2.34 3 -1.68 3 -1 3 C-0.67 2.01 -0.34 1.02 0 0 Z " fill="#111111" transform="translate(214,174)"/>
<path d="M0 0 C0.33 0.99 0.66 1.98 1 3 C1.99 3 2.98 3 4 3 C4 3.66 4 4.32 4 5 C3.01 5 2.02 5 1 5 C0.67 6.32 0.34 7.64 0 9 C-0.99 8.67 -1.98 8.34 -3 8 C-3.26554688 8.55429687 -3.53109375 9.10859375 -3.8046875 9.6796875 C-4.33449219 10.76636719 -4.33449219 10.76636719 -4.875 11.875 C-5.22304687 12.59429687 -5.57109375 13.31359375 -5.9296875 14.0546875 C-7 16 -7 16 -9 18 C-9.66 19.32 -10.32 20.64 -11 22 C-11.99 19.03 -12.98 16.06 -14 13 C-11 12 -11 12 -10 12 C-9.731875 11.360625 -9.46375 10.72125 -9.1875 10.0625 C-8 8 -8 8 -5 7 C-5 6.34 -5 5.68 -5 5 C-4.34 5 -3.68 5 -3 5 C-3 4.34 -3 3.68 -3 3 C-2.34 3 -1.68 3 -1 3 C-0.67 2.01 -0.34 1.02 0 0 Z " fill="#111111" transform="translate(234,296)"/>
<path d="M0 0 C0.66 0 1.32 0 2 0 C3.625 2 3.625 2 5 4 C4.01 4 3.02 4 2 4 C1.938125 4.598125 1.87625 5.19625 1.8125 5.8125 C0.68022678 8.8609279 -1.24532024 9.41605914 -4 11 C-4.33 11.99 -4.66 12.98 -5 14 C-5.66 14 -6.32 14 -7 14 C-7.33 14.99 -7.66 15.98 -8 17 C-9.32 16.34 -10.64 15.68 -12 15 C-11.52794881 10.75153925 -9.11122478 8.73180712 -6 6 C-5.34 6 -4.68 6 -4 6 C-3.67 5.01 -3.34 4.02 -3 3 C-2.01 3 -1.02 3 0 3 C0 2.01 0 1.02 0 0 Z " fill="#101010" transform="translate(315,73)"/>
<path d="M0 0 C0.33 0.99 0.66 1.98 1 3 C1.99 3.33 2.98 3.66 4 4 C3.01 4 2.02 4 1 4 C0.67 5.65 0.34 7.3 0 9 C-0.8971875 9.061875 -0.8971875 9.061875 -1.8125 9.125 C-4.35100832 9.87739901 -4.35100832 9.87739901 -5.75 13.0625 C-6.1625 14.031875 -6.575 15.00125 -7 16 C-8.32 16 -9.64 16 -11 16 C-11.66 15.01 -12.32 14.02 -13 13 C-9.66666667 9.66666667 -6.33333333 6.33333333 -3 3 C-2.01 3 -1.02 3 0 3 C0 2.01 0 1.02 0 0 Z " fill="#121212" transform="translate(249,210)"/>
<path d="M0 0 C2.475 0.99 2.475 0.99 5 2 C4.67 2.99 4.34 3.98 4 5 C3.34 5 2.68 5 2 5 C2 5.66 2 6.32 2 7 C0.68 7 -0.64 7 -2 7 C-2 7.99 -2 8.98 -2 10 C-2.99 10 -3.98 10 -5 10 C-4.67 10.99 -4.34 11.98 -4 13 C-5.32 12.67 -6.64 12.34 -8 12 C-8 8 -8 8 -5.6875 5.25 C-3 3 -3 3 0 3 C0 2.01 0 1.02 0 0 Z " fill="#111111" transform="translate(300,88)"/>
<path d="M0 0 C1.32 1.32 2.64 2.64 4 4 C3.01 4 2.02 4 1 4 C1.33 4.99 1.66 5.98 2 7 C1.38125 7.28875 0.7625 7.5775 0.125 7.875 C-2.99551702 9.52703842 -3.87357405 10.62072216 -5 14 C-6.32 13.34 -7.64 12.68 -9 12 C-8.61402985 9.20171644 -8.19863427 8.1794116 -6.0625 6.25 C-4 5 -4 5 -2 5 C-2 4.34 -2 3.68 -2 3 C-1.34 3 -0.68 3 0 3 C0 2.01 0 1.02 0 0 Z " fill="#111111" transform="translate(178,139)"/>
<path d="M0 0 C0.66 0 1.32 0 2 0 C2 0.99 2 1.98 2 3 C2.99 3.33 3.98 3.66 5 4 C4.01 4.33 3.02 4.66 2 5 C2 5.66 2 6.32 2 7 C1.21625 7.226875 0.4325 7.45375 -0.375 7.6875 C-3.21875 8.78125 -3.21875 8.78125 -4.3125 11.625 C-4.539375 12.40875 -4.76625 13.1925 -5 14 C-6.32 13.34 -7.64 12.68 -9 12 C-8.61402985 9.20171644 -8.19863427 8.1794116 -6.0625 6.25 C-4 5 -4 5 -2 5 C-2 4.34 -2 3.68 -2 3 C-1.34 3 -0.68 3 0 3 C0 2.01 0 1.02 0 0 Z " fill="#121212" transform="translate(56,119)"/>
<path d="M0 0 C0.99 0.33 1.98 0.66 3 1 C3 1.66 3 2.32 3 3 C3.66 3.33 4.32 3.66 5 4 C3.68 4.33 2.36 4.66 1 5 C1 5.66 1 6.32 1 7 C0.01 7 -0.98 7 -2 7 C-2.33 8.32 -2.66 9.64 -3 11 C-3.99 10.01 -4.98 9.02 -6 8 C-5.67 7.01 -5.34 6.02 -5 5 C-4.34 5 -3.68 5 -3 5 C-2.5359375 4.0409375 -2.5359375 4.0409375 -2.0625 3.0625 C-1 1 -1 1 0 0 Z " fill="#111111" transform="translate(282,177)"/>
<path d="M0 0 C2.475 0.99 2.475 0.99 5 2 C3.54744301 5.82946843 1.57104439 7.12050295 -2 9 C-2.66 7.02 -3.32 5.04 -4 3 C-2.68 3 -1.36 3 0 3 C0 2.01 0 1.02 0 0 Z " fill="#161616" transform="translate(163,154)"/>
<path d="M0 0 C0.33 0.99 0.66 1.98 1 3 C1.99 3 2.98 3 4 3 C4 3.66 4 4.32 4 5 C3.01 5 2.02 5 1 5 C0.67 6.32 0.34 7.64 0 9 C-0.66 9 -1.32 9 -2 9 C-2.33 7.02 -2.66 5.04 -3 3 C-2.34 3 -1.68 3 -1 3 C-0.67 2.01 -0.34 1.02 0 0 Z " fill="#111111" transform="translate(234,296)"/>
<path d="M0 0 C0.99 0.33 1.98 0.66 3 1 C3 1.66 3 2.32 3 3 C3.66 3 4.32 3 5 3 C5 3.66 5 4.32 5 5 C4.01 5 3.02 5 2 5 C2 5.99 2 6.98 2 8 C0.68 7.67 -0.64 7.34 -2 7 C-1.125 2.25 -1.125 2.25 0 0 Z " fill="#262626" transform="translate(246,141)"/>
<path d="M0 0 C0.99 0 1.98 0 3 0 C3 0.99 3 1.98 3 3 C3.66 3.33 4.32 3.66 5 4 C3.68 4 2.36 4 1 4 C1 4.99 1 5.98 1 7 C-0.32 6.34 -1.64 5.68 -3 5 C-1.125 1.125 -1.125 1.125 0 0 Z " fill="#131313" transform="translate(231,228)"/>
<path d="M0 0 C0.99 0 1.98 0 3 0 C3 0.66 3 1.32 3 2 C3.66 2 4.32 2 5 2 C5 2.66 5 3.32 5 4 C4.01 4.33 3.02 4.66 2 5 C2 5.66 2 6.32 2 7 C0.68 6.34 -0.64 5.68 -2 5 C-1.125 1.125 -1.125 1.125 0 0 Z " fill="#131313" transform="translate(195,193)"/>
<path d="M0 0 C1.5625 1.625 1.5625 1.625 3 4 C2.6875 7.25 2.6875 7.25 2 10 C-0.6855594 7.3144406 -1.06049974 4.62378672 -2 1 C-1.34 0.67 -0.68 0.34 0 0 Z " fill="#242424" transform="translate(222,308)"/>
<path d="M0 0 C1.32 0.33 2.64 0.66 4 1 C4 1.66 4 2.32 4 3 C0.04 3 -3.92 3 -8 3 C-7.67 2.34 -7.34 1.68 -7 1 C-4.69 1.33 -2.38 1.66 0 2 C0 1.34 0 0.68 0 0 Z " fill="#171717" transform="translate(32,143)"/>
</svg>
